<?xml version="1.0" encoding="UTF-8"?>
<svg width="800px" height="600px" viewBox="0 0 800 600" version="1.1" xmlns="http://www.w3.org/2000/svg" xmlns:xlink="http://www.w3.org/1999/xlink">
    <title>StartSmart Hero Illustration</title>
    <defs>
        <linearGradient x1="0%" y1="0%" x2="100%" y2="100%" id="linearGradient-1">
            <stop stop-color="#E85A0D" offset="0%"></stop>
            <stop stop-color="#1E4D8C" offset="100%"></stop>
        </linearGradient>
        <linearGradient x1="0%" y1="0%" x2="100%" y2="100%" id="linearGradient-2">
            <stop stop-color="#F9A826" offset="0%"></stop>
            <stop stop-color="#E85A0D" offset="100%"></stop>
        </linearGradient>
    </defs>
    <g id="Hero-Illustration" stroke="none" stroke-width="1" fill="none" fill-rule="evenodd">
        <!-- Background Elements -->
        <circle id="Circle1" fill="#F9A82620" cx="650" cy="150" r="80"></circle>
        <circle id="Circle2" fill="#1E4D8C20" cx="200" cy="450" r="120"></circle>
        <circle id="Circle3" fill="#E85A0D20" cx="400" cy="100" r="50"></circle>
        
        <!-- Rocket -->
        <g id="Rocket" transform="translate(350, 250)">
            <path d="M50,0 C77.6142375,0 100,22.3857625 100,50 C100,77.6142375 77.6142375,100 50,100 C22.3857625,100 0,77.6142375 0,50 C0,22.3857625 22.3857625,0 50,0 Z" id="RocketBody" fill="url(#linearGradient-1)"></path>
            <path d="M50,10 L80,80 L20,80 L50,10 Z" id="RocketNose" fill="#FFFFFF"></path>
            <rect id="RocketWindow" fill="#1E4D8C" x="40" y="40" width="20" height="20" rx="10"></rect>
            <path d="M20,80 L0,120 L40,100 L20,80 Z" id="LeftFin" fill="url(#linearGradient-2)"></path>
            <path d="M80,80 L100,120 L60,100 L80,80 Z" id="RightFin" fill="url(#linearGradient-2)"></path>
            <path d="M30,100 L40,130 L60,130 L70,100 L30,100 Z" id="RocketBase" fill="#1E4D8C"></path>
            <path d="M40,130 L35,150 L45,140 L40,130 Z" id="LeftFlame" fill="#F9A826"></path>
            <path d="M60,130 L65,150 L55,140 L60,130 Z" id="RightFlame" fill="#F9A826"></path>
            <path d="M50,130 L50,160 L45,140 L55,140 L50,130 Z" id="CenterFlame" fill="#E85A0D"></path>
        </g>
        
        <!-- Buildings -->
        <g id="Buildings" transform="translate(100, 350)">
            <rect id="Building1" fill="#1E4D8C" x="0" y="0" width="80" height="200"></rect>
            <rect id="Building2" fill="#2E8B57" x="100" y="50" width="100" height="150"></rect>
            <rect id="Building3" fill="#E85A0D" x="220" y="20" width="60" height="180"></rect>
            <rect id="Building4" fill="#F9A826" x="300" y="80" width="120" height="120"></rect>
            <rect id="Building5" fill="#1E4D8C" x="440" y="30" width="70" height="170"></rect>
            <rect id="Building6" fill="#2E8B57" x="530" y="100" width="90" height="100"></rect>
            
            <!-- Windows -->
            <g id="Windows" fill="#FFFFFF">
                <rect x="15" y="30" width="20" height="20"></rect>
                <rect x="45" y="30" width="20" height="20"></rect>
                <rect x="15" y="70" width="20" height="20"></rect>
                <rect x="45" y="70" width="20" height="20"></rect>
                <rect x="15" y="110" width="20" height="20"></rect>
                <rect x="45" y="110" width="20" height="20"></rect>
                <rect x="15" y="150" width="20" height="20"></rect>
                <rect x="45" y="150" width="20" height="20"></rect>
                
                <rect x="120" y="80" width="20" height="20"></rect>
                <rect x="160" y="80" width="20" height="20"></rect>
                <rect x="120" y="120" width="20" height="20"></rect>
                <rect x="160" y="120" width="20" height="20"></rect>
                <rect x="120" y="160" width="20" height="20"></rect>
                <rect x="160" y="160" width="20" height="20"></rect>
                
                <rect x="240" y="50" width="20" height="20"></rect>
                <rect x="240" y="90" width="20" height="20"></rect>
                <rect x="240" y="130" width="20" height="20"></rect>
                <rect x="240" y="170" width="20" height="20"></rect>
                
                <rect x="330" y="100" width="20" height="20"></rect>
                <rect x="370" y="100" width="20" height="20"></rect>
                <rect x="330" y="140" width="20" height="20"></rect>
                <rect x="370" y="140" width="20" height="20"></rect>
                
                <rect x="465" y="60" width="20" height="20"></rect>
                <rect x="465" y="100" width="20" height="20"></rect>
                <rect x="465" y="140" width="20" height="20"></rect>
                
                <rect x="550" y="120" width="20" height="20"></rect>
                <rect x="580" y="120" width="20" height="20"></rect>
                <rect x="550" y="160" width="20" height="20"></rect>
                <rect x="580" y="160" width="20" height="20"></rect>
            </g>
        </g>
        
        <!-- Stars -->
        <g id="Stars" fill="#FFFFFF">
            <circle cx="150" cy="100" r="3"></circle>
            <circle cx="250" cy="80" r="2"></circle>
            <circle cx="350" cy="120" r="4"></circle>
            <circle cx="450" cy="70" r="3"></circle>
            <circle cx="550" cy="90" r="2"></circle>
            <circle cx="650" cy="110" r="3"></circle>
            <circle cx="700" cy="200" r="2"></circle>
            <circle cx="100" cy="200" r="3"></circle>
            <circle cx="200" cy="150" r="2"></circle>
            <circle cx="600" cy="180" r="3"></circle>
        </g>
        
        <!-- Job Icons -->
        <g id="JobIcons">
            <circle id="Icon1" fill="#E85A0D30" cx="200" cy="200" r="30"></circle>
            <circle id="Icon2" fill="#1E4D8C30" cx="600" cy="250" r="25"></circle>
            <circle id="Icon3" fill="#F9A82630" cx="500" cy="150" r="20"></circle>
            <circle id="Icon4" fill="#2E8B5730" cx="300" cy="300" r="35"></circle>
            
            <g id="BriefcaseIcon" transform="translate(185, 185)">
                <rect fill="#E85A0D" x="5" y="8" width="20" height="15" rx="2"></rect>
                <rect fill="#E85A0D" x="10" y="5" width="10" height="5" rx="1"></rect>
            </g>
            
            <g id="RocketIcon" transform="translate(590, 240)">
                <path d="M10,0 L20,15 L0,15 Z" fill="#1E4D8C"></path>
                <rect fill="#1E4D8C" x="5" y="15" width="10" height="10"></rect>
            </g>
            
            <g id="GraduationIcon" transform="translate(490, 140)">
                <rect fill="#F9A826" x="5" y="5" width="10" height="10"></rect>
                <path d="M0,15 L20,15 L10,5 Z" fill="#F9A826"></path>
            </g>
            
            <g id="HandshakeIcon" transform="translate(285, 290)">
                <path d="M0,10 C0,4.477 4.477,0 10,0 C15.523,0 20,4.477 20,10 C20,15.523 15.523,20 10,20 C4.477,20 0,15.523 0,10 Z" fill="#2E8B57"></path>
                <path d="M5,10 L15,10" stroke="#FFFFFF" stroke-width="2"></path>
            </g>
        </g>
    </g>
</svg>