<?xml version="1.0" encoding="UTF-8"?>
<svg width="500px" height="500px" viewBox="0 0 500 500" version="1.1" xmlns="http://www.w3.org/2000/svg" xmlns:xlink="http://www.w3.org/1999/xlink">
    <title>StartSmart Pattern</title>
    <defs>
        <linearGradient x1="0%" y1="0%" x2="100%" y2="100%" id="linearGradient-1">
            <stop stop-color="#FFFFFF" offset="0%"></stop>
            <stop stop-color="#FFFFFF" offset="100%"></stop>
        </linearGradient>
    </defs>
    <g id="Pattern" stroke="none" stroke-width="1" fill="none" fill-rule="evenodd">
        <!-- Grid Pattern -->
        <g id="Grid" stroke="#FFFFFF" stroke-width="0.5" opacity="0.3">
            <line x1="0" y1="50" x2="500" y2="50"></line>
            <line x1="0" y1="100" x2="500" y2="100"></line>
            <line x1="0" y1="150" x2="500" y2="150"></line>
            <line x1="0" y1="200" x2="500" y2="200"></line>
            <line x1="0" y1="250" x2="500" y2="250"></line>
            <line x1="0" y1="300" x2="500" y2="300"></line>
            <line x1="0" y1="350" x2="500" y2="350"></line>
            <line x1="0" y1="400" x2="500" y2="400"></line>
            <line x1="0" y1="450" x2="500" y2="450"></line>
            
            <line x1="50" y1="0" x2="50" y2="500"></line>
            <line x1="100" y1="0" x2="100" y2="500"></line>
            <line x1="150" y1="0" x2="150" y2="500"></line>
            <line x1="200" y1="0" x2="200" y2="500"></line>
            <line x1="250" y1="0" x2="250" y2="500"></line>
            <line x1="300" y1="0" x2="300" y2="500"></line>
            <line x1="350" y1="0" x2="350" y2="500"></line>
            <line x1="400" y1="0" x2="400" y2="500"></line>
            <line x1="450" y1="0" x2="450" y2="500"></line>
        </g>
        
        <!-- Circles -->
        <circle id="Circle1" fill="#FFFFFF" opacity="0.2" cx="50" cy="50" r="10"></circle>
        <circle id="Circle2" fill="#FFFFFF" opacity="0.2" cx="150" cy="150" r="15"></circle>
        <circle id="Circle3" fill="#FFFFFF" opacity="0.2" cx="250" cy="250" r="20"></circle>
        <circle id="Circle4" fill="#FFFFFF" opacity="0.2" cx="350" cy="350" r="15"></circle>
        <circle id="Circle5" fill="#FFFFFF" opacity="0.2" cx="450" cy="450" r="10"></circle>
        
        <!-- Dots -->
        <g id="Dots" fill="#FFFFFF" opacity="0.4">
            <circle cx="100" cy="100" r="3"></circle>
            <circle cx="200" cy="100" r="3"></circle>
            <circle cx="300" cy="100" r="3"></circle>
            <circle cx="400" cy="100" r="3"></circle>
            
            <circle cx="100" cy="200" r="3"></circle>
            <circle cx="200" cy="200" r="3"></circle>
            <circle cx="300" cy="200" r="3"></circle>
            <circle cx="400" cy="200" r="3"></circle>
            
            <circle cx="100" cy="300" r="3"></circle>
            <circle cx="200" cy="300" r="3"></circle>
            <circle cx="300" cy="300" r="3"></circle>
            <circle cx="400" cy="300" r="3"></circle>
            
            <circle cx="100" cy="400" r="3"></circle>
            <circle cx="200" cy="400" r="3"></circle>
            <circle cx="300" cy="400" r="3"></circle>
            <circle cx="400" cy="400" r="3"></circle>
        </g>
        
        <!-- Diagonal Lines -->
        <g id="DiagonalLines" stroke="#FFFFFF" stroke-width="0.5" opacity="0.2">
            <line x1="0" y1="0" x2="500" y2="500"></line>
            <line x1="100" y1="0" x2="500" y2="400"></line>
            <line x1="200" y1="0" x2="500" y2="300"></line>
            <line x1="300" y1="0" x2="500" y2="200"></line>
            <line x1="400" y1="0" x2="500" y2="100"></line>
            
            <line x1="0" y1="100" x2="400" y2="500"></line>
            <line x1="0" y1="200" x2="300" y2="500"></line>
            <line x1="0" y1="300" x2="200" y2="500"></line>
            <line x1="0" y1="400" x2="100" y2="500"></line>
        </g>
    </g>
</svg>